<?xml version="1.0" standalone="no"?>
<!DOCTYPE svg PUBLIC "-//W3C//DTD SVG 20010904//EN"
 "http://www.w3.org/TR/2001/REC-SVG-20010904/DTD/svg10.dtd">
<svg version="1.0" xmlns="http://www.w3.org/2000/svg"
 width="809.000000pt" height="684.000000pt" viewBox="0 0 809.000000 684.000000"
 preserveAspectRatio="xMidYMid meet">

<g transform="translate(0.000000,684.000000) scale(0.100000,-0.100000)"
fill="#000000" stroke="none">
<path d="M3160 6469 c-33 -13 -59 -38 -76 -71 -26 -50 -212 -965 -480 -2362
l-138 -718 23 -43 c13 -24 36 -50 54 -59 18 -9 113 -32 212 -52 226 -46 219
-43 197 -71 l-17 -21 -245 54 -245 55 -255 -142 c-283 -157 -459 -269 -607
-387 -177 -141 -302 -285 -346 -399 -108 -279 149 -497 805 -683 123 -34 151
-39 169 -29 19 10 230 145 455 292 39 25 84 48 100 52 29 5 29 5 4 -7 -56 -27
-602 -382 -607 -395 -3 -8 -3 -17 1 -20 3 -3 275 -89 603 -190 481 -147 602
-181 620 -173 13 5 66 42 119 82 l96 72 76 -13 c172 -28 727 -142 875 -180
471 -122 720 -246 803 -402 12 -23 18 -56 18 -99 1 -55 -5 -75 -33 -128 -41
-75 -91 -122 -130 -122 -45 0 -4877 1676 -4873 1690 2 8 -10 4 -30 -8 -61 -38
-71 -136 -20 -199 13 -16 581 -214 2357 -821 1287 -439 2361 -804 2387 -810
57 -15 141 -15 189 -2 26 7 71 47 175 152 123 126 851 886 1117 1166 l97 102
-16 31 -16 32 -56 -54 c-32 -30 -170 -166 -309 -303 -139 -138 -255 -247 -259
-243 -4 4 -51 82 -105 173 l-97 166 87 82 c47 46 183 172 301 281 118 109 226
208 239 221 l24 22 -38 11 c-20 5 -45 16 -54 24 -19 17 -200 57 -206 46 -7
-11 -47 1 -70 22 -25 22 -198 60 -238 52 -19 -4 -37 1 -55 14 -29 21 -167 54
-218 51 -17 0 -44 8 -60 20 -30 22 -205 65 -228 56 -7 -3 -16 1 -19 9 -4 10 0
14 11 11 9 -2 177 -40 372 -83 378 -85 1045 -238 1070 -246 9 -3 62 32 125 82
94 74 107 87 90 95 -16 6 -894 201 -1685 374 -105 23 -129 32 -152 56 -15 15
-31 28 -35 28 -6 0 -952 210 -1058 234 -15 4 -21 15 -22 39 l-3 35 178 -38
c97 -20 441 -92 763 -160 l585 -123 -18 -36 c-18 -34 -18 -36 -1 -43 10 -4
259 -59 553 -123 294 -64 543 -118 554 -122 17 -5 18 -1 14 44 l-5 50 156 -33
c86 -19 170 -34 188 -34 37 0 98 52 107 91 3 13 46 310 96 659 117 818 107
760 135 760 17 0 25 7 29 28 3 15 62 419 131 897 69 479 144 999 166 1156 l42
286 -19 39 c-23 45 -57 72 -104 80 l-35 6 32 -21 c35 -22 63 -67 63 -103 1
-39 -125 -904 -128 -883 -2 12 -23 31 -53 48 -50 28 -50 28 -44 70 3 23 23
166 45 317 44 307 45 300 -29 300 -43 0 -806 44 -1140 65 l-235 15 -247 135
-248 135 -313 15 c-641 30 -1889 85 -1925 84 -21 0 -49 -5 -63 -10z m2035
-1030 c1133 -56 2061 -102 2062 -103 5 -4 -373 -2665 -379 -2672 -4 -3 -4221
837 -4227 842 -6 5 377 1971 394 2025 4 13 15 16 48 13 23 -2 969 -50 2102
-105z m929 -3154 c469 -102 606 -148 606 -202 0 -28 -41 -93 -58 -93 -9 0
-105 21 -212 47 l-195 48 -185 122 c-102 68 -179 123 -173 123 7 0 105 -20
217 -45z m-3279 -415 c13 -5 14 -9 5 -9 -8 0 -24 4 -35 9 -13 5 -14 9 -5 9 8
0 24 -4 35 -9z m82 -26 c-3 -3 -12 -4 -19 -1 -8 3 -5 6 6 6 11 1 17 -2 13 -5z
m70 -20 c-3 -3 -12 -4 -19 -1 -8 3 -5 6 6 6 11 1 17 -2 13 -5z m70 -20 c-3 -3
-12 -4 -19 -1 -8 3 -5 6 6 6 11 1 17 -2 13 -5z m70 -20 c-3 -3 -12 -4 -19 -1
-8 3 -5 6 6 6 11 1 17 -2 13 -5z m70 -20 c-3 -3 -12 -4 -19 -1 -8 3 -5 6 6 6
11 1 17 -2 13 -5z m70 -20 c-3 -3 -12 -4 -19 -1 -8 3 -5 6 6 6 11 1 17 -2 13
-5z m88 -24 c13 -5 14 -9 5 -9 -8 0 -24 4 -35 9 -13 5 -14 9 -5 9 8 0 24 -4
35 -9z m70 -20 c13 -5 14 -9 5 -9 -8 0 -24 4 -35 9 -13 5 -14 9 -5 9 8 0 24
-4 35 -9z m70 -20 c13 -5 14 -9 5 -9 -8 0 -24 4 -35 9 -13 5 -14 9 -5 9 8 0
24 -4 35 -9z m70 -20 c13 -5 14 -9 5 -9 -8 0 -24 4 -35 9 -13 5 -14 9 -5 9 8
0 24 -4 35 -9z m70 -20 c13 -5 14 -9 5 -9 -8 0 -24 4 -35 9 -13 5 -14 9 -5 9
8 0 24 -4 35 -9z m70 -20 c13 -5 14 -9 5 -9 -8 0 -24 4 -35 9 -13 5 -14 9 -5
9 8 0 24 -4 35 -9z m70 -20 c13 -5 14 -9 5 -9 -8 0 -24 4 -35 9 -13 5 -14 9
-5 9 8 0 24 -4 35 -9z m242 -6 c-3 -3 -12 -4 -19 -1 -8 3 -5 6 6 6 11 1 17 -2
13 -5z m-172 -14 c13 -5 14 -9 5 -9 -8 0 -24 4 -35 9 -13 5 -14 9 -5 9 8 0 24
-4 35 -9z m260 -10 c13 -5 14 -9 5 -9 -8 0 -24 4 -35 9 -13 5 -14 9 -5 9 8 0
24 -4 35 -9z m-195 -10 c18 -12 2 -12 -25 0 -13 6 -15 9 -5 9 8 0 22 -4 30 -9z
m700 -130 c234 -66 528 -148 654 -184 l230 -65 53 46 c30 25 57 43 60 39 4 -3
4 -7 2 -9 -2 -2 -27 -22 -55 -45 -29 -23 -59 -42 -67 -42 -19 0 -1350 380
-1357 387 -8 9 26 0 480 -127z m-1752 1 c10 -6 10 -11 -3 -21 -14 -12 -18 -11
-26 1 -17 28 -1 40 29 20z"/>
</g>
</svg>
